<svg width="22" height="22" viewBox="0 0 22 22" fill="none" xmlns="http://www.w3.org/2000/svg">
<path d="M9.16667 2.75H3.66667C3.42355 2.75 3.19039 2.84658 3.01849 3.01849C2.84658 3.19039 2.75 3.42355 2.75 3.66667V9.16667C2.75 9.40978 2.84658 9.64294 3.01849 9.81485C3.19039 9.98676 3.42355 10.0833 3.66667 10.0833H9.16667C9.40978 10.0833 9.64294 9.98676 9.81485 9.81485C9.98676 9.64294 10.0833 9.40978 10.0833 9.16667V3.66667C10.0833 3.42355 9.98676 3.19039 9.81485 3.01849C9.64294 2.84658 9.40978 2.75 9.16667 2.75ZM8.25 8.25H4.58333V4.58333H8.25V8.25ZM12.8333 10.0833H18.3333C18.5764 10.0833 18.8096 9.98676 18.9815 9.81485C19.1534 9.64294 19.25 9.40978 19.25 9.16667V3.66667C19.25 3.42355 19.1534 3.19039 18.9815 3.01849C18.8096 2.84658 18.5764 2.75 18.3333 2.75H12.8333C12.5902 2.75 12.3571 2.84658 12.1852 3.01849C12.0132 3.19039 11.9167 3.42355 11.9167 3.66667V9.16667C11.9167 9.40978 12.0132 9.64294 12.1852 9.81485C12.3571 9.98676 12.5902 10.0833 12.8333 10.0833ZM13.75 4.58333H17.4167V8.25H13.75V4.58333ZM2.75 18.3333C2.75 18.5764 2.84658 18.8096 3.01849 18.9815C3.19039 19.1534 3.42355 19.25 3.66667 19.25H9.16667C9.40978 19.25 9.64294 19.1534 9.81485 18.9815C9.98676 18.8096 10.0833 18.5764 10.0833 18.3333V12.8333C10.0833 12.5902 9.98676 12.3571 9.81485 12.1852C9.64294 12.0132 9.40978 11.9167 9.16667 11.9167H3.66667C3.42355 11.9167 3.19039 12.0132 3.01849 12.1852C2.84658 12.3571 2.75 12.5902 2.75 12.8333V18.3333ZM4.58333 13.75H8.25V17.4167H4.58333V13.75ZM11.9167 18.3333C11.9167 18.5764 12.0132 18.8096 12.1852 18.9815C12.3571 19.1534 12.5902 19.25 12.8333 19.25H18.3333C18.5764 19.25 18.8096 19.1534 18.9815 18.9815C19.1534 18.8096 19.25 18.5764 19.25 18.3333V12.8333C19.25 12.5902 19.1534 12.3571 18.9815 12.1852C18.8096 12.0132 18.5764 11.9167 18.3333 11.9167H12.8333C12.5902 11.9167 12.3571 12.0132 12.1852 12.1852C12.0132 12.3571 11.9167 12.5902 11.9167 12.8333V18.3333ZM13.75 13.75H17.4167V17.4167H13.75V13.75Z" fill="black" fill-opacity="0.9"/>
</svg>
