<svg width="38" height="38" viewBox="0 0 38 38" fill="none" xmlns="http://www.w3.org/2000/svg">
<path d="M17.1667 24.5C18.7937 24.4996 20.3739 23.955 21.6556 22.9526L25.6852 26.9823L26.9814 25.6861L22.9517 21.6565C23.9546 20.3747 24.4996 18.7941 24.5 17.1666C24.5 13.1232 21.2101 9.83331 17.1667 9.83331C13.1232 9.83331 9.83333 13.1232 9.83333 17.1666C9.83333 21.2101 13.1232 24.5 17.1667 24.5ZM17.1667 11.6666C20.1999 11.6666 22.6667 14.1334 22.6667 17.1666C22.6667 20.1999 20.1999 22.6666 17.1667 22.6666C14.1334 22.6666 11.6667 20.1999 11.6667 17.1666C11.6667 14.1334 14.1334 11.6666 17.1667 11.6666Z" fill="black"/>
</svg>
