<svg width="22" height="22" viewBox="0 0 22 22" fill="none" xmlns="http://www.w3.org/2000/svg">
<path d="M9.16666 16.5C10.7937 16.4996 12.3739 15.955 13.6556 14.9526L17.6852 18.9823L18.9814 17.6861L14.9517 13.6565C15.9546 12.3747 16.4996 10.7941 16.5 9.16665C16.5 5.12323 13.2101 1.83331 9.16666 1.83331C5.12324 1.83331 1.83333 5.12323 1.83333 9.16665C1.83333 13.2101 5.12324 16.5 9.16666 16.5ZM9.16666 3.66665C12.1999 3.66665 14.6667 6.1334 14.6667 9.16665C14.6667 12.1999 12.1999 14.6666 9.16666 14.6666C6.13341 14.6666 3.66666 12.1999 3.66666 9.16665C3.66666 6.1334 6.13341 3.66665 9.16666 3.66665Z" fill="black"/>
</svg>
